<svg xmlns="http://www.w3.org/2000/svg" viewBox="0 0 64 64">
  <defs>
    <linearGradient id="gradient" x1="10%" y1="90%" x2="90%" y2="10%">
      <stop offset="0%" stop-color="#6366f1"/>
      <stop offset="50%" stop-color="#8b5cf6"/>
      <stop offset="100%" stop-color="#14b8a6"/>
    </linearGradient>
  </defs>
  <circle cx="32" cy="32" r="30" fill="url(#gradient)"/>
  <path fill="#0f172a" opacity=".18" d="M32 4a28 28 0 1028 28A28 28 0 0032 4zm0 52a24 24 0 1124-24 24 24 0 01-24 24z"/>
  <path fill="#fff" d="M20 18h14c7 0 11 4.2 11 10 0 4.8-2.7 8-7.1 9l8.6 12.9h-7.9l-8-12.3h-0.2V50H20zm7 14h5c2.3 0 3.7-1.4 3.7-3.4S34.3 25 32 25h-5z"/>
  <path fill="#fff" d="M42 18l11 32h-7.4l-2-6H36l2.1-6.2h4.5L40.4 26z" opacity=".92"/>
</svg>
